<?xml version="1.0" standalone="no"?>
<!DOCTYPE svg PUBLIC "-//W3C//DTD SVG 20010904//EN"
 "http://www.w3.org/TR/2001/REC-SVG-20010904/DTD/svg10.dtd">
<svg version="1.0" xmlns="http://www.w3.org/2000/svg"
 width="512.000000pt" height="512.000000pt" viewBox="0 0 512.000000 512.000000"
 preserveAspectRatio="xMidYMid meet">

<g transform="translate(0.000000,512.000000) scale(0.100000,-0.100000)"
fill="#000000" stroke="none">
<path d="M2040 4658 c-23 -8 -81 -56 -166 -140 l-131 -128 -19 21 c-10 12 -46
35 -79 50 -71 34 -153 39 -231 12 -70 -24 -154 -110 -177 -182 -32 -101 -13
-207 51 -282 l35 -41 -202 -202 c-219 -220 -226 -232 -176 -281 29 -30 64 -32
96 -6 l24 20 176 -175 c123 -122 182 -174 198 -174 35 0 59 18 81 59 54 108
191 118 258 21 41 -61 21 -165 -39 -198 -60 -33 -82 -57 -82 -91 0 -29 20 -53
174 -207 l174 -174 -129 -129 -129 -130 -40 34 c-57 49 -123 69 -211 63 -82
-6 -138 -30 -190 -84 -105 -108 -113 -284 -18 -395 l35 -41 -129 -129 -128
-129 -161 160 -161 160 -48 0 c-45 0 -52 -4 -96 -49 -26 -27 -64 -54 -84 -61
-95 -31 -186 38 -186 140 0 51 17 85 68 131 43 40 57 84 41 127 -6 15 -73 90
-150 168 -99 100 -139 147 -139 164 0 16 35 59 117 141 l116 118 34 -29 c63
-56 90 -65 193 -65 85 0 100 3 140 27 100 59 153 147 153 258 1 79 -14 127
-58 185 -28 36 -33 50 -29 77 4 24 0 40 -16 61 -32 41 -73 37 -121 -12 -34
-34 -39 -44 -39 -86 0 -43 4 -51 49 -94 95 -92 88 -206 -16 -260 -57 -29 -152
-3 -188 53 -26 39 -81 60 -124 47 -55 -16 -335 -301 -350 -356 -30 -109 -13
-146 139 -300 l128 -130 -33 -38 c-94 -107 -85 -295 17 -394 115 -110 271
-121 394 -27 l47 36 336 -336 c348 -348 361 -358 423 -343 13 4 46 28 74 56
41 40 59 51 97 56 155 23 229 -173 101 -270 -43 -33 -62 -91 -45 -133 7 -17
81 -97 164 -179 131 -128 159 -151 199 -162 99 -28 156 1 307 153 l114 115 41
-35 c109 -93 287 -84 392 21 104 104 117 274 28 391 l-36 46 121 122 c68 69
127 138 136 159 19 47 19 117 0 164 -17 41 -272 305 -317 329 -15 8 -44 14
-64 14 -31 0 -44 -8 -84 -49 -77 -80 -156 -90 -226 -29 -68 60 -66 157 5 221
51 46 61 66 61 118 0 42 -4 46 -157 201 l-157 158 129 130 129 130 31 -29 c47
-45 94 -64 171 -69 101 -6 163 16 229 82 61 60 85 121 85 210 0 82 -14 127
-56 182 l-36 46 121 122 c68 69 127 138 136 159 19 47 19 117 0 164 -17 41
-272 305 -317 329 -54 28 -118 10 -157 -45 -28 -38 -98 -66 -146 -57 -49 10
-104 61 -115 109 -12 57 5 104 61 160 46 46 49 53 49 99 l0 50 -142 145 c-79
80 -160 154 -181 164 -47 25 -121 32 -167 17z m206 -250 c63 -61 114 -116 114
-123 0 -6 -11 -22 -24 -34 -40 -38 -69 -117 -69 -192 -1 -55 4 -77 31 -132 54
-110 136 -160 262 -161 84 -1 153 24 203 72 l28 27 114 -116 c92 -92 115 -121
115 -144 0 -23 -28 -56 -145 -175 l-145 -147 0 -48 c0 -43 4 -52 39 -85 56
-53 73 -84 73 -132 2 -86 -57 -148 -140 -148 -53 0 -87 17 -130 65 -18 20 -45
40 -59 46 -55 21 -81 3 -246 -159 l-157 -156 -129 128 -129 129 29 37 c64 80
86 198 53 293 -21 63 -83 130 -152 164 -48 23 -69 28 -132 27 -84 -1 -130 -17
-185 -66 l-36 -31 -130 129 -129 129 149 150 c82 82 154 160 160 172 26 51 9
99 -56 156 -78 69 -64 195 27 242 62 32 151 10 192 -47 27 -39 80 -61 122 -52
22 5 73 48 177 150 100 98 153 144 168 144 15 0 61 -37 137 -112z m-9 -2080
c68 -68 123 -128 123 -134 0 -6 -11 -21 -24 -33 -40 -37 -69 -118 -69 -191 -2
-164 128 -294 293 -294 81 0 128 16 187 61 l46 35 114 -114 c90 -92 113 -120
113 -143 0 -23 -28 -56 -145 -175 l-145 -147 0 -48 c0 -44 4 -52 44 -89 54
-51 68 -77 68 -131 3 -142 -178 -197 -266 -82 -31 40 -83 62 -124 52 -16 -4
-87 -66 -173 -151 -102 -100 -154 -144 -169 -144 -16 0 -60 37 -141 117 l-118
116 25 30 c68 81 92 198 60 295 -63 190 -317 262 -467 134 l-41 -35 -129 129
-129 129 175 175 c212 213 214 220 95 294 -66 41 -89 130 -50 194 59 96 207
96 256 0 27 -54 44 -68 82 -68 33 0 50 14 206 170 94 93 173 170 176 170 3 0
60 -55 127 -122z"/>
<path d="M3970 3604 c-39 -16 -303 -273 -326 -316 -29 -55 -11 -113 50 -161
109 -85 46 -257 -94 -257 -52 0 -90 19 -123 64 -34 44 -84 62 -130 47 -21 -7
-78 -57 -155 -135 -104 -105 -122 -127 -122 -154 0 -42 31 -72 73 -72 28 0 46
14 132 100 l99 100 26 -24 c56 -53 109 -71 205 -71 93 0 135 14 190 62 121
106 137 301 33 419 l-32 36 115 114 c94 92 121 114 144 114 24 0 55 -26 177
-146 l147 -147 51 5 c46 5 57 11 93 51 105 114 267 64 267 -83 0 -51 -17 -85
-68 -131 -43 -40 -57 -84 -41 -127 6 -15 73 -90 150 -168 99 -100 139 -147
139 -164 0 -16 -35 -58 -116 -141 l-117 -118 -40 34 c-109 94 -294 85 -394
-17 -109 -111 -120 -272 -27 -394 l36 -47 -113 -113 c-93 -93 -119 -114 -143
-114 -24 0 -54 25 -176 145 -139 137 -149 145 -186 145 -47 -1 -73 -14 -108
-56 -93 -112 -266 -56 -266 86 0 52 19 90 64 123 39 30 61 85 51 125 -3 14
-45 66 -93 114 -73 75 -90 88 -118 88 -23 0 -38 -8 -53 -26 -34 -44 -27 -69
39 -138 l60 -63 -23 -21 c-67 -63 -95 -201 -63 -300 23 -67 84 -135 152 -168
104 -51 248 -32 327 43 l27 27 123 -122 c70 -68 139 -128 160 -137 51 -21 130
-19 175 4 20 11 103 86 185 168 l147 150 0 48 c0 44 -4 52 -44 89 -56 51 -80
104 -71 157 12 72 70 119 145 119 51 0 85 -17 131 -68 42 -46 86 -58 132 -38
18 8 98 81 178 162 150 152 169 181 169 254 0 72 -20 103 -150 235 l-128 130
33 39 c48 55 69 122 63 210 -6 83 -29 134 -85 188 -55 54 -124 81 -203 82 -79
0 -127 -15 -187 -61 l-46 -35 -121 120 c-66 66 -135 127 -153 136 -40 20 -127
20 -173 0z"/>
</g>
</svg>
