<?xml version="1.0" standalone="no"?>
<!DOCTYPE svg PUBLIC "-//W3C//DTD SVG 20010904//EN" "http://www.w3.org/TR/2001/REC-SVG-20010904/DTD/svg10.dtd">
<svg xmlns="http://www.w3.org/2000/svg" version="1.1" xmlns:xlink="http://www.w3.org/1999/xlink" xmlns:svgjs="http://svgjs.com/svgjs" width="512" height="512" x="0" y="0" viewBox="0 0 20 20" style="enable-background:new 0 0 512 512" xml:space="preserve" class="">

<g><g clip-rule="evenodd" fill="rgb(0,0,0)" fill-rule="evenodd"><path d="m15.0499 5.15243c-.765-.79684-2.031-.82272-2.8279-.0578l-2.88561 2.77004-1.38502-1.44282 2.88563-2.77003c1.5937-1.52985 4.1258-1.4781 5.6557.11559 1.5298 1.5937 1.4781 4.12583-.1156 5.65568l-2.8857 2.77001-1.385-1.4428 2.8857-2.77003c.7968-.76493.8227-2.03099.0578-2.82784z" fill="#000000" data-original="#000000" class=""></path><path d="m4.95014 14.8476c.76492.7968 2.03099.8227 2.82784.0578l2.88562-2.7701 1.385 1.4428-2.88561 2.7701c-1.59369 1.5298-4.12582 1.4781-5.65567-.1156s-1.47809-4.1258.1156-5.6557l2.88563-2.77003 1.38502 1.44282-2.88563 2.77001c-.79685.765-.82273 2.031-.0578 2.8279z" fill="#000000" data-original="#000000" class=""></path><path d="m7.14326 11.3561 4.32844-4.15504 1.385 1.44282-4.32842 4.15502z" fill="#000000" data-original="#000000" class=""></path></g></g>

</svg>
