<?xml version="1.0" standalone="no"?>
<!DOCTYPE svg PUBLIC "-//W3C//DTD SVG 20010904//EN"
 "http://www.w3.org/TR/2001/REC-SVG-20010904/DTD/svg10.dtd">
<svg version="1.0" xmlns="http://www.w3.org/2000/svg"
 width="512.000000pt" height="512.000000pt" viewBox="0 0 512.000000 512.000000"
 preserveAspectRatio="xMidYMid meet">

<g transform="translate(0.000000,512.000000) scale(0.100000,-0.100000)"
fill="#000000" stroke="none">
<path d="M2506 4415 c-31 -11 -118 -92 -374 -347 -183 -183 -342 -350 -353
-370 -21 -42 -24 -83 -9 -125 12 -32 680 -707 722 -729 15 -8 45 -14 68 -14
23 0 53 6 68 14 42 22 710 697 722 729 15 42 12 83 -9 125 -11 20 -172 188
-358 374 -284 282 -344 338 -378 347 -49 13 -51 13 -99 -4z"/>
<path d="M1420 3340 c-19 -10 -187 -171 -372 -357 -293 -295 -338 -343 -348
-380 -24 -92 -23 -93 348 -466 185 -186 354 -347 374 -358 42 -21 83 -24 125
-9 32 12 707 680 729 722 8 15 14 45 14 68 0 23 -6 53 -14 68 -22 42 -697 710
-729 722 -42 15 -87 12 -127 -10z"/>
<path d="M3570 3349 c-30 -12 -705 -683 -726 -721 -8 -15 -14 -45 -14 -68 0
-23 6 -53 14 -68 22 -42 697 -710 729 -722 42 -15 83 -12 125 9 20 11 189 172
374 358 293 295 338 343 348 381 24 91 23 92 -348 465 -185 186 -354 347 -374
358 -40 20 -88 24 -128 8z"/>
<path d="M2485 2271 c-50 -31 -703 -694 -715 -724 -15 -42 -12 -83 9 -125 11
-20 172 -189 358 -374 373 -371 374 -372 466 -348 37 10 85 55 380 348 186
185 347 354 358 374 21 42 24 83 9 125 -12 32 -680 707 -722 729 -38 20 -107
18 -143 -5z"/>
</g>
</svg>
