<?xml version="1.0" standalone="no"?>
<!DOCTYPE svg PUBLIC "-//W3C//DTD SVG 20010904//EN"
 "http://www.w3.org/TR/2001/REC-SVG-20010904/DTD/svg10.dtd">
<svg version="1.0" xmlns="http://www.w3.org/2000/svg"
 width="512.000000pt" height="512.000000pt" viewBox="0 0 512.000000 512.000000"
 preserveAspectRatio="xMidYMid meet">

<g transform="translate(0.000000,512.000000) scale(0.100000,-0.100000)"
fill="#000000" stroke="none">
<path d="M2480 5104 c-56 -24 -109 -82 -125 -138 -9 -29 -15 -91 -15 -149 0
-98 0 -99 23 -93 76 20 202 28 285 17 48 -6 97 -14 110 -17 22 -6 22 -5 22 93
0 126 -17 187 -67 235 -67 66 -156 85 -233 52z"/>
<path d="M2395 4574 c-193 -47 -366 -187 -455 -369 -51 -103 -70 -187 -70
-305 0 -118 19 -202 70 -305 220 -451 834 -522 1157 -134 55 67 117 193 137
279 9 36 16 108 16 160 0 118 -19 202 -70 305 -89 182 -252 316 -446 365 -93
24 -249 26 -339 4z m241 -235 c187 -34 331 -179 365 -369 51 -290 -217 -560
-508 -511 -193 33 -339 178 -374 371 -41 228 124 464 356 508 69 13 93 14 161
1z"/>
<path d="M2465 4177 c-92 -37 -153 -97 -179 -175 -38 -110 -12 -228 69 -308
64 -64 128 -88 223 -82 159 9 272 129 272 288 0 113 -59 211 -156 260 -57 29
-179 38 -229 17z"/>
<path d="M1870 3335 c-46 -108 -540 -1314 -540 -1319 0 -3 6 -6 13 -6 6 0 40
-13 75 -30 84 -39 164 -120 205 -207 30 -64 32 -75 32 -178 0 -99 -3 -116 -28
-169 -103 -222 -358 -318 -570 -216 -23 11 -44 17 -48 13 -12 -14 -29 -112
-29 -171 0 -134 63 -286 158 -381 31 -32 67 -65 79 -73 l22 -14 -70 -170 c-64
-154 -71 -178 -80 -268 -9 -108 -3 -132 36 -142 33 -8 49 3 115 81 46 55 68
94 113 204 31 75 299 728 596 1451 l540 1315 -69 11 c-181 31 -346 119 -473
253 l-58 60 -19 -44z"/>
<path d="M3175 3322 c-66 -73 -152 -136 -250 -183 -78 -38 -215 -79 -262 -79
-12 0 -23 -5 -23 -10 0 -6 184 -459 409 -1008 225 -548 491 -1198 592 -1444
177 -433 184 -449 241 -515 68 -78 81 -87 113 -79 39 10 45 34 35 142 -8 90
-15 115 -83 279 l-74 181 65 59 c142 129 210 307 188 486 -10 82 -13 84 -80
53 -82 -37 -191 -44 -282 -16 -125 38 -210 111 -268 232 -29 61 -31 72 -31
175 0 103 2 114 32 178 41 87 121 168 205 207 35 17 69 30 76 30 6 0 12 3 12
8 0 13 -555 1362 -560 1361 -3 -1 -27 -26 -55 -57z"/>
<path d="M900 2482 c-49 -24 -80 -75 -80 -129 0 -55 20 -94 67 -130 36 -28 37
-28 192 -28 l155 0 46 110 c25 61 54 129 63 153 l17 42 -213 0 c-182 0 -217
-3 -247 -18z"/>
<path d="M2409 2453 c-53 -123 -99 -240 -99 -251 0 -9 66 -12 256 -12 141 0
254 4 252 8 -1 5 -30 75 -62 155 l-60 147 -133 0 -134 0 -20 -47z"/>
<path d="M3824 2348 l62 -153 156 0 c143 0 159 2 185 21 101 75 97 214 -7 266
-30 15 -65 18 -247 18 l-212 0 63 -152z"/>
<path d="M1179 1863 c-49 -7 -133 -66 -166 -115 -105 -158 -29 -361 155 -414
97 -29 202 3 271 83 101 114 92 276 -21 377 -69 63 -142 84 -239 69z"/>
<path d="M3799 1855 c-26 -8 -69 -35 -97 -60 -112 -101 -122 -265 -22 -377 71
-81 175 -113 273 -84 196 57 265 287 132 444 -61 73 -191 107 -286 77z"/>
</g>
</svg>
