<?xml version="1.0" standalone="no"?>
<!DOCTYPE svg PUBLIC "-//W3C//DTD SVG 20010904//EN"
 "http://www.w3.org/TR/2001/REC-SVG-20010904/DTD/svg10.dtd">
<svg version="1.0" xmlns="http://www.w3.org/2000/svg"
 width="512.000000pt" height="512.000000pt" viewBox="0 0 512.000000 512.000000"
 preserveAspectRatio="xMidYMid meet">

<g transform="translate(0.000000,512.000000) scale(0.100000,-0.100000)"
fill="#000000" stroke="none">
<path d="M0 3760 l0 -1360 430 0 430 0 0 -1200 0 -1200 2130 0 2130 0 0 1350
0 1350 -440 0 -440 0 0 1210 0 1210 -2120 0 -2120 0 0 -1360z m3940 -320 c0
-759 -3 -1380 -8 -1380 -4 0 -151 144 -327 320 l-320 320 -675 0 -675 0 -537
537 -538 538 0 -538 0 -537 -280 0 -280 0 0 1060 0 1060 1820 0 1820 0 0
-1380z m-1450 -1040 l675 0 537 -537 538 -538 0 538 0 537 290 0 290 0 0
-1050 0 -1050 -1830 0 -1830 0 0 1377 0 1378 328 -328 327 -327 675 0z"/>
<path d="M2540 4154 c-151 -146 -312 -299 -358 -341 l-83 -77 -135 135 -134
134 -105 -105 -105 -105 239 -239 239 -239 309 295 c169 162 378 361 464 443
l157 149 -101 108 c-56 59 -104 108 -107 107 -3 0 -129 -119 -280 -265z"/>
<path d="M2250 1350 l0 -150 150 0 150 0 0 150 0 150 -150 0 -150 0 0 -150z"/>
<path d="M2850 1350 l0 -150 150 0 150 0 0 150 0 150 -150 0 -150 0 0 -150z"/>
<path d="M3450 1350 l0 -150 150 0 150 0 0 150 0 150 -150 0 -150 0 0 -150z"/>
</g>
</svg>
