<?xml version="1.0" standalone="no"?>
<!DOCTYPE svg PUBLIC "-//W3C//DTD SVG 20010904//EN"
 "http://www.w3.org/TR/2001/REC-SVG-20010904/DTD/svg10.dtd">
<svg version="1.0" xmlns="http://www.w3.org/2000/svg"
 width="512.000000pt" height="512.000000pt" viewBox="0 0 512.000000 512.000000"
 preserveAspectRatio="xMidYMid meet">

<g transform="translate(0.000000,512.000000) scale(0.100000,-0.100000)"
fill="#000000" stroke="none">
<path d="M1122 5100 c-21 -20 -22 -28 -22 -220 0 -187 1 -201 20 -220 38 -38
100 -22 119 31 14 41 15 338 1 375 -21 55 -78 71 -118 34z"/>
<path d="M2641 4924 c-19 -25 -21 -40 -21 -205 0 -111 4 -187 11 -203 23 -51
103 -55 128 -7 7 12 11 95 11 210 0 178 -1 192 -20 211 -30 30 -83 27 -109 -6z"/>
<path d="M182 4817 c-21 -22 -22 -32 -22 -216 0 -190 0 -192 25 -216 13 -14
36 -25 50 -25 14 0 37 11 50 25 25 24 25 26 25 213 0 176 -1 191 -21 216 -27
34 -77 36 -107 3z"/>
<path d="M1892 4617 c-46 -14 -117 -80 -141 -130 -14 -30 -21 -63 -21 -105 0
-105 43 -178 131 -227 167 -91 371 30 372 219 1 78 -26 138 -85 193 -25 23
-63 46 -84 52 -48 13 -128 13 -172 -2z m147 -153 c65 -46 57 -145 -16 -179
-102 -49 -194 86 -114 166 34 34 92 40 130 13z"/>
<path d="M3298 4490 c-46 -14 -85 -48 -107 -93 -18 -36 -21 -62 -21 -161 l0
-117 -31 -11 c-111 -39 -323 -163 -379 -223 -13 -14 -32 -25 -41 -25 -10 0
-60 22 -111 49 -51 27 -106 52 -121 55 -36 9 -104 -10 -142 -39 -33 -25 -228
-376 -240 -432 -6 -29 1 -70 20 -115 7 -17 -20 -18 -484 -18 -478 0 -492 -1
-511 -20 -30 -30 -27 -83 6 -109 27 -21 28 -21 1230 -21 l1204 0 0 -215 0
-215 -1630 0 -1630 0 0 215 0 215 276 0 276 0 30 30 c24 25 29 36 24 58 -4 15
-16 35 -28 45 -20 16 -45 18 -327 15 -343 -3 -336 -2 -380 -79 -20 -35 -21
-52 -21 -318 l0 -281 43 -47 c35 -40 258 -275 1284 -1355 l63 -66 0 -409 c0
-439 1 -445 53 -482 12 -9 143 -85 292 -169 257 -146 272 -153 315 -149 35 4
51 13 77 41 l33 36 0 224 0 225 -26 20 c-35 27 -57 26 -91 -3 l-28 -24 -5
-175 -5 -175 -232 131 -232 132 -3 405 c-3 363 -5 409 -21 440 -9 20 -298 330
-640 690 l-624 655 758 3 c417 1 1102 1 1524 0 l766 -3 -613 -644 c-337 -354
-623 -658 -635 -674 -35 -47 -45 -120 -41 -318 3 -176 4 -181 27 -200 30 -25
76 -24 101 1 19 19 20 33 20 204 0 102 4 196 9 209 5 14 161 184 347 379 l337
355 76 -32 76 -32 5 -129 c3 -73 10 -138 17 -150 18 -32 80 -83 111 -91 15 -5
124 -8 242 -8 242 0 267 6 318 73 25 33 27 44 32 162 5 136 11 153 57 165 74
18 260 129 364 216 l37 31 106 -57 c102 -55 110 -57 166 -53 92 7 114 30 233
248 98 177 102 188 102 246 0 91 -27 125 -151 193 -54 30 -102 58 -105 63 -3
4 -2 32 2 61 10 67 10 237 0 304 -4 29 -5 57 -1 62 3 6 44 31 90 56 138 76
178 128 168 220 -5 44 -170 362 -216 417 -34 40 -78 60 -133 61 -38 1 -66 -9
-147 -51 -55 -29 -105 -52 -111 -52 -6 0 -49 29 -95 64 -95 72 -185 125 -277
162 -35 14 -70 33 -76 42 -9 10 -13 53 -13 123 0 148 -20 191 -105 230 -35 16
-66 18 -250 18 -115 0 -222 -4 -237 -9z m443 -270 c8 -169 35 -215 149 -260
101 -40 205 -99 287 -165 92 -74 116 -85 180 -85 36 0 67 11 148 55 84 45 105
52 117 42 23 -17 189 -329 186 -347 -2 -8 -45 -38 -97 -66 -51 -29 -105 -63
-119 -77 -33 -34 -50 -103 -41 -175 10 -75 9 -223 0 -291 -10 -70 3 -130 37
-169 15 -18 67 -53 116 -80 49 -26 94 -55 99 -64 14 -21 -167 -358 -192 -358
-10 0 -55 20 -101 45 -143 77 -196 79 -282 10 -95 -76 -218 -153 -294 -184
-168 -70 -185 -95 -192 -276 -3 -73 -9 -123 -16 -127 -17 -12 -365 -9 -387 2
-17 10 -19 22 -19 123 -1 159 -29 214 -130 253 -25 9 -49 20 -54 25 -4 4 50
67 120 141 l128 133 136 1 c113 0 147 4 205 23 172 57 218 106 164 175 -26 34
-64 34 -129 1 -57 -29 -170 -58 -209 -53 -24 3 -20 9 66 99 51 53 95 107 98
121 3 13 5 143 3 289 -3 245 -4 266 -24 299 -11 19 -35 45 -54 57 -32 22 -41
23 -259 23 l-226 1 40 35 c83 74 217 124 332 124 259 0 480 -186 523 -442 15
-87 3 -201 -30 -275 -28 -64 -26 -107 6 -132 15 -12 35 -21 46 -21 53 0 106
107 129 260 33 217 -62 460 -237 604 -214 177 -509 205 -758 73 -63 -33 -202
-158 -225 -201 l-14 -26 -275 0 -275 0 -78 42 c-43 23 -80 47 -83 53 -2 7 12
44 32 82 113 213 147 273 158 277 7 3 27 -3 45 -13 166 -88 173 -91 221 -91
56 0 97 18 151 67 66 59 180 128 285 172 152 64 172 96 172 269 0 72 4 112 12
120 9 9 64 12 208 10 l195 -3 6 -125z"/>
<path d="M750 4425 c-126 -39 -202 -174 -170 -304 49 -203 320 -260 447 -93
107 140 40 346 -128 396 -63 19 -89 19 -149 1z m120 -150 c99 -51 67 -194 -44
-195 -30 0 -45 7 -72 34 -38 38 -43 70 -19 116 16 31 57 59 88 60 10 0 31 -7
47 -15z"/>
<path d="M1434 4029 c-17 -19 -19 -38 -19 -216 l0 -195 28 -24 c34 -29 56 -30
91 -3 l26 20 0 204 c0 199 0 204 -22 219 -32 23 -81 20 -104 -5z"/>
</g>
</svg>
