<?xml version="1.0" standalone="no"?>
<!DOCTYPE svg PUBLIC "-//W3C//DTD SVG 20010904//EN"
 "http://www.w3.org/TR/2001/REC-SVG-20010904/DTD/svg10.dtd">
<svg version="1.0" xmlns="http://www.w3.org/2000/svg"
 width="512.000000pt" height="512.000000pt" viewBox="0 0 512.000000 512.000000"
 preserveAspectRatio="xMidYMid meet">

<g transform="translate(0.000000,512.000000) scale(0.100000,-0.100000)"
fill="#000000" stroke="none">
<path d="M564 4471 c-48 -12 -133 -62 -160 -94 -14 -17 -37 -53 -52 -81 l-27
-51 0 -1685 0 -1685 27 -52 c35 -66 85 -116 151 -151 l52 -27 272 -3 c297 -4
342 2 416 52 l37 25 37 -25 c74 -50 119 -56 416 -52 264 3 273 4 317 27 25 13
52 30 61 38 15 12 22 10 64 -16 75 -47 122 -53 415 -49 l265 3 57 28 c62 30
115 83 150 149 l23 43 5 1350 c4 1061 8 1341 17 1310 6 -22 170 -632 364
-1355 193 -723 362 -1336 375 -1361 30 -60 112 -133 171 -153 83 -29 149 -21
398 45 126 34 247 70 268 81 98 49 164 148 173 261 5 58 -20 156 -390 1537
-217 811 -405 1494 -417 1517 -32 62 -105 126 -175 153 -47 17 -72 21 -124 17
-69 -5 -489 -116 -543 -143 -18 -9 -53 -36 -78 -61 l-46 -45 -7 29 c-11 42
-63 118 -102 148 -19 14 -56 36 -82 48 -45 21 -60 22 -332 22 l-285 0 -56 -26
c-69 -33 -127 -89 -160 -155 -22 -44 -24 -64 -27 -204 l-3 -155 -319 0 -319 0
-3 250 c-4 210 -7 258 -22 298 -25 66 -103 149 -168 178 -51 23 -62 24 -328
26 -151 1 -289 -2 -306 -6z m540 -215 c72 -30 66 121 66 -1696 0 -1817 6
-1666 -66 -1696 -51 -21 -463 -20 -509 2 -70 33 -65 -93 -65 1694 0 1782 -5
1660 63 1694 44 22 460 23 511 2z m2734 -230 c21 -21 84 -244 418 -1490 428
-1598 409 -1513 347 -1553 -29 -19 -444 -133 -484 -133 -31 0 -77 34 -89 65
-24 62 -780 2906 -780 2933 0 18 10 42 24 59 21 24 54 36 247 90 242 67 277
70 317 29z m-992 -10 l34 -34 0 -1521 c0 -1688 5 -1567 -65 -1597 -49 -20
-461 -20 -510 0 -70 30 -65 -90 -65 1591 0 1399 1 1519 17 1545 9 16 26 33 37
39 12 5 124 10 270 10 l248 1 34 -34z m-876 -511 c16 -8 34 -24 40 -34 7 -13
10 -437 10 -1288 l0 -1269 -21 -23 c-11 -12 -32 -26 -46 -32 -41 -15 -458 -11
-497 5 -71 30 -66 -78 -66 1318 0 876 3 1264 11 1281 24 53 44 56 302 57 193
0 244 -3 267 -15z"/>
<path d="M693 4038 c-57 -28 -67 -122 -17 -169 24 -23 34 -24 164 -27 160 -4
192 6 216 65 19 43 5 93 -33 123 -23 18 -40 20 -167 19 -77 0 -151 -5 -163
-11z"/>
<path d="M710 1273 c-57 -21 -85 -94 -55 -148 25 -48 50 -55 204 -55 124 0
141 2 164 20 38 30 52 80 33 123 -23 57 -55 67 -203 66 -70 0 -135 -3 -143 -6z"/>
<path d="M3645 3823 c-27 -8 -79 -23 -115 -33 -81 -24 -115 -56 -115 -109 0
-49 26 -86 70 -101 31 -10 51 -8 162 22 150 39 183 63 183 130 0 32 -7 47 -34
74 -38 38 -67 42 -151 17z"/>
<path d="M4220 1299 c-120 -34 -149 -56 -157 -117 -5 -37 -2 -45 30 -77 26
-26 43 -35 69 -35 48 0 249 57 278 78 49 37 51 112 5 158 -33 33 -90 31 -225
-7z"/>
<path d="M2398 3823 c-56 -35 -66 -117 -19 -164 l29 -29 152 0 152 0 29 29
c33 33 39 83 15 130 -23 43 -54 51 -199 51 -105 0 -137 -4 -159 -17z"/>
<path d="M2398 1263 c-56 -35 -66 -117 -19 -164 l29 -29 152 0 152 0 29 29
c33 33 39 83 15 130 -23 43 -54 51 -199 51 -105 0 -137 -4 -159 -17z"/>
<path d="M1553 3294 c-29 -15 -63 -65 -63 -94 0 -30 34 -80 65 -94 44 -21 250
-22 300 -2 35 15 65 59 65 96 0 37 -30 81 -65 96 -49 20 -259 19 -302 -2z"/>
<path d="M1544 1261 c-44 -27 -60 -77 -41 -124 26 -61 45 -67 199 -67 80 0
147 5 162 11 60 28 71 122 20 170 -24 23 -33 24 -167 27 -127 2 -145 1 -173
-17z"/>
</g>
</svg>
