<?xml version="1.0" standalone="no"?>
<!DOCTYPE svg PUBLIC "-//W3C//DTD SVG 20010904//EN"
 "http://www.w3.org/TR/2001/REC-SVG-20010904/DTD/svg10.dtd">
<svg version="1.0" xmlns="http://www.w3.org/2000/svg"
 width="512.000000pt" height="512.000000pt" viewBox="0 0 512.000000 512.000000"
 preserveAspectRatio="xMidYMid meet">

<g transform="translate(0.000000,512.000000) scale(0.100000,-0.100000)"
fill="#000000" stroke="none">
<path d="M2380 4954 c-537 -51 -997 -242 -1386 -578 -441 -379 -716 -882 -811
-1478 -24 -157 -24 -517 1 -676 74 -472 259 -879 561 -1230 382 -445 916 -731
1515 -814 123 -17 478 -16 600 1 604 83 1135 368 1517 815 603 705 749 1669
382 2523 -376 876 -1264 1454 -2219 1441 -69 0 -141 -3 -160 -4z m510 -178
c510 -84 933 -303 1280 -662 271 -281 457 -612 554 -986 58 -222 71 -325 70
-573 0 -238 -16 -365 -69 -569 -159 -612 -600 -1151 -1170 -1431 -221 -108
-397 -165 -645 -207 -168 -29 -510 -31 -675 -5 -479 78 -885 278 -1226 605
-369 353 -582 773 -670 1317 -18 106 -18 484 0 590 83 517 274 909 611 1259
355 367 811 598 1315 665 44 6 96 13 115 15 75 9 419 -4 510 -18z"/>
<path d="M1520 3747 c-49 -16 -133 -102 -148 -153 -17 -59 -17 -1209 0 -1268
16 -55 99 -138 154 -154 29 -8 147 -12 396 -12 412 0 420 1 491 80 24 26 49
66 55 88 17 56 17 1208 0 1264 -6 22 -31 62 -55 88 -71 79 -79 80 -497 79
-233 -1 -373 -5 -396 -12z m775 -172 l25 -24 0 -591 0 -591 -25 -24 -24 -25
-351 0 -351 0 -24 25 -25 24 0 591 0 591 25 24 24 25 351 0 351 0 24 -25z"/>
<path d="M2800 3747 c-49 -16 -133 -102 -148 -153 -7 -23 -12 -92 -12 -154 0
-62 5 -131 12 -154 16 -55 99 -138 154 -154 29 -8 147 -12 396 -12 412 0 420
1 491 80 56 62 67 102 67 240 0 138 -11 178 -67 240 -71 79 -79 80 -497 79
-233 -1 -373 -5 -396 -12z m775 -172 c24 -23 25 -31 25 -135 0 -104 -1 -112
-25 -135 l-24 -25 -351 0 -351 0 -24 25 c-24 23 -25 31 -25 135 0 104 1 112
25 135 l24 25 351 0 351 0 24 -25z"/>
<path d="M2800 2947 c-49 -16 -133 -102 -148 -153 -17 -59 -17 -1209 0 -1268
16 -55 99 -138 154 -154 29 -8 147 -12 396 -12 412 0 420 1 491 80 24 26 49
66 55 88 17 56 17 1208 0 1264 -6 22 -31 62 -55 88 -71 79 -79 80 -497 79
-233 -1 -373 -5 -396 -12z m775 -172 l25 -24 0 -591 0 -591 -25 -24 -24 -25
-351 0 -351 0 -24 25 -25 24 0 591 0 591 25 24 24 25 351 0 351 0 24 -25z"/>
<path d="M1520 1987 c-49 -16 -133 -102 -148 -153 -7 -23 -12 -92 -12 -154 0
-62 5 -131 12 -154 16 -55 99 -138 154 -154 29 -8 147 -12 396 -12 412 0 420
1 491 80 56 62 67 102 67 240 0 138 -11 178 -67 240 -71 79 -79 80 -497 79
-233 -1 -373 -5 -396 -12z m775 -172 c24 -23 25 -31 25 -135 0 -104 -1 -112
-25 -135 l-24 -25 -351 0 -351 0 -24 25 c-24 23 -25 31 -25 135 0 104 1 112
25 135 l24 25 351 0 351 0 24 -25z"/>
</g>
</svg>
