<?xml version="1.0" standalone="no"?>
<!DOCTYPE svg PUBLIC "-//W3C//DTD SVG 20010904//EN" "http://www.w3.org/TR/2001/REC-SVG-20010904/DTD/svg10.dtd">

<svg xmlns="http://www.w3.org/2000/svg" version="1.1" xmlns:xlink="http://www.w3.org/1999/xlink" xmlns:svgjs="http://svgjs.com/svgjs" width="512" height="512" x="0" y="0" viewBox="0 0 491.5 491.5" style="enable-background:new 0 0 512 512" xml:space="preserve" class=""><g><g clip-rule="evenodd" fill-rule="evenodd"><path d="m42.3 424.1-6.1 31.3 31.2-6.2 162.1-162.1-25.1-25.1z" fill="#7b7b7b" data-original="#7b7b7b" class=""></path><path d="m315.2 262.9-86.6-86.6c-10.7-10.7-24.7-16-38.8-16-14 0-28.1 5.3-38.8 16l-7.7 7.7c-.9.9-.9 2.5 0 3.4l160.8 160.8c.9.9 2.5.9 3.4 0l7.6-7.7c21.5-21.4 21.5-56.2.1-77.6z" fill="#484848" data-original="#484848" class=""></path><path d="m244.9 179.1 67.5 67.5 64-78.4-53.1-53.1z" fill="#7b7b7b" data-original="#7b7b7b" class=""></path><g fill="#484848"><path d="m328.5 106.7 56.3 56.3 52.6-2-106.9-106.9z" fill="#484848" data-original="#484848" class=""></path><path d="m445.2 112.8-66.5-66.5c-12.4-12.4-32-13.5-45.6-3.2l115.2 115.2c10.4-13.5 9.3-33.1-3.1-45.5z" fill="#484848" data-original="#484848" class=""></path></g></g></g></svg>
