<?xml version="1.0" standalone="no"?>
<!DOCTYPE svg PUBLIC "-//W3C//DTD SVG 20010904//EN"
 "http://www.w3.org/TR/2001/REC-SVG-20010904/DTD/svg10.dtd">
<svg version="1.0" xmlns="http://www.w3.org/2000/svg"
 width="512.000000pt" height="512.000000pt" viewBox="0 0 512.000000 512.000000"
 preserveAspectRatio="xMidYMid meet">

<g transform="translate(0.000000,512.000000) scale(0.100000,-0.100000)"
fill="#000000" stroke="none">
<path d="M2330 5109 c-204 -19 -463 -77 -646 -144 -242 -88 -538 -256 -739
-420 -121 -98 -334 -318 -423 -437 -295 -393 -466 -840 -512 -1333 -59 -638
148 -1312 560 -1824 100 -124 319 -337 440 -427 433 -325 927 -500 1465 -520
888 -34 1737 407 2228 1156 37 58 93 155 124 216 51 102 55 115 48 155 -10 60
-64 114 -123 124 -35 6 -52 3 -89 -17 -41 -21 -53 -35 -101 -123 -240 -441
-565 -762 -987 -973 -880 -439 -1931 -265 -2622 436 -340 344 -556 778 -629
1267 -25 164 -25 466 0 630 125 832 677 1515 1460 1805 248 92 494 134 776
134 300 0 555 -47 816 -149 838 -329 1392 -1103 1439 -2010 8 -147 17 -178 61
-212 74 -56 175 -36 222 43 22 37 23 45 18 179 -11 256 -66 540 -152 774 -89
242 -254 533 -419 736 -98 120 -318 334 -435 421 -266 200 -582 355 -884 435
-291 77 -614 105 -896 78z"/>
<path d="M3175 3448 c-3 -7 -6 -62 -7 -121 l-3 -108 -190 -5 c-216 -6 -286
-19 -393 -70 -96 -46 -194 -142 -244 -239 -22 -42 -60 -154 -97 -283 -34 -118
-73 -237 -88 -264 -37 -67 -119 -149 -179 -179 -46 -22 -62 -24 -244 -26 -171
-2 -196 -4 -207 -20 -9 -11 -13 -53 -13 -124 0 -87 3 -111 17 -124 14 -15 42
-16 237 -13 202 4 226 6 279 27 131 52 261 162 336 285 48 80 74 150 136 366
61 212 78 250 127 296 71 67 143 84 363 84 l152 0 7 -127 c3 -70 11 -132 16
-137 6 -6 19 -6 34 0 38 14 396 369 396 393 0 25 -387 401 -413 401 -10 0 -20
-6 -22 -12z"/>
<path d="M1625 3233 c-43 -2 -85 -9 -92 -15 -20 -17 -18 -232 3 -252 13 -13
46 -16 203 -16 257 0 308 -18 406 -145 l45 -57 10 27 c5 14 10 30 10 35 0 20
44 109 81 163 46 68 48 64 -45 133 -77 58 -137 89 -212 107 -63 16 -276 26
-409 20z"/>
<path d="M3170 2434 c-6 -14 -10 -73 -10 -131 l0 -105 -182 4 c-179 3 -184 4
-241 33 -59 29 -128 95 -149 140 -16 36 -24 31 -37 -22 -16 -61 -56 -155 -88
-206 l-26 -41 48 -43 c58 -51 168 -107 250 -128 42 -11 112 -15 242 -15 l183
0 0 -113 c0 -118 10 -153 43 -146 26 6 407 378 407 399 0 25 -385 400 -411
400 -12 0 -23 -10 -29 -26z"/>
</g>
</svg>
