<?xml version="1.0" standalone="no"?>
<!DOCTYPE svg PUBLIC "-//W3C//DTD SVG 20010904//EN" "http://www.w3.org/TR/2001/REC-SVG-20010904/DTD/svg10.dtd">
<svg xmlns="http://www.w3.org/2000/svg" version="1.1" xmlns:xlink="http://www.w3.org/1999/xlink" xmlns:svgjs="http://svgjs.com/svgjs" width="512" height="512" x="0" y="0" viewBox="0 0 32 32" style="enable-background:new 0 0 512 512" xml:space="preserve" class="">

<g><path d="M16,19a2.993,2.993,0,0,1-2.107-5.126,3.064,3.064,0,0,1,4.234.018A3,3,0,0,1,16,19Zm0-4a.952.952,0,0,0-.693.288A.975.975,0,0,0,15,16a.965.965,0,0,0,.287.694.993.993,0,0,0,1.407.018A.978.978,0,0,0,17,16a.965.965,0,0,0-.287-.694A.976.976,0,0,0,16,15Z" fill="#000000" data-original="#000000" class=""></path><path d="M6.1,26.9a.994.994,0,0,1-.709-.295,15,15,0,0,1,0-21.21A1,1,0,0,1,6.809,6.806a13,13,0,0,0,0,18.388A1,1,0,0,1,6.1,26.9Z" fill="#000000" data-original="#000000" class=""></path><path d="M25.9,26.9a1,1,0,0,1-.709-1.706,13,13,0,0,0,0-18.388A1,1,0,0,1,26.609,5.4a15,15,0,0,1,0,21.21A.994.994,0,0,1,25.9,26.9Z" fill="#000000" data-original="#000000" class=""></path><path d="M23.07,24.07a1,1,0,0,1-.707-1.707,9,9,0,0,0,0-12.726,1,1,0,1,1,1.414-1.414,10.994,10.994,0,0,1,0,15.554A1,1,0,0,1,23.07,24.07Z" fill="#000000" data-original="#000000" class=""></path><path d="M8.93,24.07a1,1,0,0,1-.707-.293,10.994,10.994,0,0,1,0-15.554A1,1,0,0,1,9.637,9.637a9,9,0,0,0,0,12.726A1,1,0,0,1,8.93,24.07Z" fill="#000000" data-original="#000000" class=""></path><path d="M20.24,21.24a1,1,0,0,1-.7-1.71,4.988,4.988,0,0,0,0-7.06,1,1,0,0,1,1.408-1.421,6.989,6.989,0,0,1,0,9.9A1,1,0,0,1,20.24,21.24Z" fill="#000000" data-original="#000000" class=""></path><path d="M11.76,21.24a1,1,0,0,1-.7-.289,6.989,6.989,0,0,1,0-9.9,1,1,0,0,1,1.408,1.421,4.988,4.988,0,0,0,0,7.06,1,1,0,0,1-.7,1.71Z" fill="#000000" data-original="#000000" class=""></path></g>

</svg>
