<?xml version="1.0" standalone="no"?>
<!DOCTYPE svg PUBLIC "-//W3C//DTD SVG 20010904//EN"
 "http://www.w3.org/TR/2001/REC-SVG-20010904/DTD/svg10.dtd">
<svg xmlns="http://www.w3.org/2000/svg" version="1.1" xmlns:xlink="http://www.w3.org/1999/xlink" xmlns:svgjs="http://svgjs.com/svgjs" width="512" height="512" x="0" y="0" viewBox="0 0 682.66669 682.66669" style="enable-background:new 0 0 512 512" xml:space="preserve" class=""><g><defs id="defs736"><clipPath clipPathUnits="userSpaceOnUse" id="clipPath746"><path d="M 0,512 H 512 V 0 H 0 Z" id="path744" fill="#000000" data-original="#000000"></path></clipPath></defs><g id="g738" transform="matrix(1.3333333,0,0,-1.3333333,0,682.66667)"><g id="g740"><g id="g742" clip-path="url(#clipPath746)"><g id="g748" transform="translate(176,256)"><path d="M 0,0 C 0,44.183 35.817,80 80,80 124.183,80 160,44.183 160,0 160,-44.183 124.183,-80 80,-80 35.817,-80 0,-44.183 0,0 Z m 50,-160 h 60 v 28.46 c 15.046,3.42 29.1,9.362 41.771,17.343 l 20.153,-20.154 42.427,42.427 -20.154,20.153 C 202.179,-59.1 208.12,-45.046 211.539,-30 H 240 v 60 h -28.461 c -3.419,15.046 -9.36,29.1 -17.342,41.771 l 20.154,20.153 -42.427,42.427 -20.153,-20.154 C 139.1,122.178 125.046,128.12 110,131.539 V 160 H 50 V 131.539 C 34.954,128.12 20.9,122.178 8.229,114.197 L -11.924,134.351 -54.35,91.924 -34.197,71.771 C -42.179,59.1 -48.12,45.046 -51.539,30 H -80 v -60 h 28.461 c 3.419,-15.046 9.36,-29.101 17.342,-41.771 l -20.153,-20.153 42.426,-42.427 20.153,20.154 C 20.9,-122.178 34.954,-128.12 50,-131.539 Z" style="stroke-width:30;stroke-linecap:round;stroke-linejoin:round;stroke-miterlimit:10;stroke-dasharray:none;stroke-opacity:1" id="path750" fill="none" stroke="#000000" stroke-width="30" stroke-linecap="round" stroke-linejoin="round" stroke-miterlimit="10" stroke-dasharray="none" stroke-opacity="" data-original="#000000" class=""></path></g><g id="g752" transform="translate(466.4121,85.5869)"><path d="M 0,0 H -39.999 V 40" style="stroke-width:30;stroke-linecap:round;stroke-linejoin:round;stroke-miterlimit:10;stroke-dasharray:none;stroke-opacity:1" id="path754" fill="none" stroke="#000000" stroke-width="30" stroke-linecap="round" stroke-linejoin="round" stroke-miterlimit="10" stroke-dasharray="none" stroke-opacity="" data-original="#000000" class=""></path></g><g id="g756" transform="translate(45.5869,426.4131)"><path d="M 0,0 H 40 V -40" style="stroke-width:30;stroke-linecap:round;stroke-linejoin:round;stroke-miterlimit:10;stroke-dasharray:none;stroke-opacity:1" id="path758" fill="none" stroke="#000000" stroke-width="30" stroke-linecap="round" stroke-linejoin="round" stroke-miterlimit="10" stroke-dasharray="none" stroke-opacity="" data-original="#000000" class=""></path></g><g id="g760" transform="translate(349.8076,33.939)"><path d="m 0,0 c -28.832,-12.195 -60.532,-18.939 -93.808,-18.939 -133.1,0 -241,107.899 -241,241 0,66.55 26.975,126.8 70.587,170.413" style="stroke-width:30;stroke-linecap:round;stroke-linejoin:round;stroke-miterlimit:10;stroke-dasharray:none;stroke-opacity:1" id="path762" fill="none" stroke="#000000" stroke-width="30" stroke-linecap="round" stroke-linejoin="round" stroke-miterlimit="10" stroke-dasharray="none" stroke-opacity="" data-original="#000000" class=""></path></g><g id="g764" transform="translate(162.1924,478.061)"><path d="m 0,0 c 28.832,12.195 60.532,18.939 93.808,18.939 133.1,0 241,-107.899 241,-241 0,-66.55 -26.975,-126.8 -70.587,-170.413" style="stroke-width:30;stroke-linecap:round;stroke-linejoin:round;stroke-miterlimit:10;stroke-dasharray:none;stroke-opacity:1" id="path766" fill="none" stroke="#000000" stroke-width="30" stroke-linecap="round" stroke-linejoin="round" stroke-miterlimit="10" stroke-dasharray="none" stroke-opacity="" data-original="#000000" class=""></path></g></g></g></g></g></svg>
